<svg width="650" height="650" viewBox="0 0 650 650" fill="none" xmlns="http://www.w3.org/2000/svg">
<rect width="650" height="650" fill="white"/>
<path fill-rule="evenodd" clip-rule="evenodd" d="M126.942 470.407C49.1516 416.441 142.317 344.93 119.559 259.42C96.8004 173.91 41.6722 46.4131 259.158 91.8437C479.517 137.874 619.276 197.146 586.248 380.741C553.22 564.336 204.732 524.374 126.942 470.407Z" fill="#64FCD9"/>
<path fill-rule="evenodd" clip-rule="evenodd" d="M464.582 544.329C459.704 539.466 457.393 532.667 455.238 526.125C449.59 534.303 436.982 534.567 428.323 529.687C419.665 524.806 413.821 516.285 407.604 508.53C396.473 494.646 348.791 460.36 348.007 450.016C347.592 444.53 363.546 434.542 363.546 434.542L334.877 417.675C334.877 417.675 320.008 429.081 311.459 430.437C287.676 434.208 270.855 431.963 270.835 436.244C270.762 451.731 364.464 530.303 334.583 529.687C289.739 528.762 207.835 441.478 181.304 434.542C170.193 431.638 93.9872 436.244 93.9872 417.798C93.9872 393.023 162.055 375.978 162.055 375.978C162.055 375.978 144.314 316.155 165.786 267.235C170.704 256.031 176.792 243.014 177.385 232.006C177.548 228.986 263.391 147.675 274.419 143.612C300.133 134.141 327.484 129.136 354.885 128.887C358.538 128.854 462.689 143.612 509.523 220.918C517.988 234.889 556.437 338.642 517.399 403.725C511.241 413.993 511.996 426.736 516.254 438.04C520.512 449.344 525.747 461.918 520.921 472.992C518.287 455.25 513.659 437.804 507.154 421.089C498.082 427.684 502.675 441.875 508.083 451.7C514.899 464.082 521.714 476.464 528.529 488.846C531.364 493.996 534.294 499.67 533.274 505.459C532.109 512.079 526.21 516.658 520.746 520.574C508.273 529.512 495.799 538.451 483.326 547.39C477.727 551.402 469.459 549.192 464.582 544.329Z" fill="white"/>
<path fill-rule="evenodd" clip-rule="evenodd" d="M296.082 270.349C297.037 267.763 300.476 266.696 303.013 267.773C305.551 268.851 307.126 271.546 307.523 274.273C307.921 277.001 307.317 279.774 306.541 282.419C305.833 284.831 304.978 287.2 303.983 289.509C303.891 289.723 303.767 289.963 303.539 290.015C303.296 290.069 303.072 289.88 302.898 289.703C298.586 285.335 295.987 279.319 295.761 273.186C295.726 272.229 295.75 271.248 296.082 270.349ZM303.535 270.98C302.828 270.374 301.914 269.977 300.983 270.005C298.808 270.071 297.291 272.443 297.34 274.618C297.388 276.792 298.546 278.767 299.671 280.629C300.476 281.963 301.281 283.296 302.087 284.63C302.361 285.084 302.901 285.603 303.329 285.288C303.501 285.161 303.567 284.939 303.624 284.732C303.953 283.521 304.283 282.309 304.613 281.097C305.084 279.365 305.559 277.605 305.529 275.81C305.5 274.015 304.898 272.149 303.535 270.98L303.535 270.98Z" fill="#FFB61D"/>
<path fill-rule="evenodd" clip-rule="evenodd" d="M302.113 277.942C301.583 278.091 301.005 278.063 300.492 277.863C299.497 277.476 298.81 276.41 298.868 275.344C298.926 274.277 299.723 273.292 300.754 273.014C302.316 272.592 304.075 274.031 303.971 275.646C303.904 276.693 303.123 277.658 302.113 277.942Z" fill="#FFB61D"/>
<path fill-rule="evenodd" clip-rule="evenodd" d="M330.579 531.431C332.363 531.666 331.705 534.435 330.548 535.813C319.495 548.971 305.063 559.268 289.024 565.439C285.428 566.823 281.707 568.012 277.862 568.277C270.733 568.768 263.63 565.984 257.992 561.592C252.354 557.2 248.057 551.297 244.556 545.067C234.981 528.029 230.968 507.923 233.266 488.515C233.482 486.689 234.728 484.266 236.411 485.008C235.923 491.496 235.848 498.016 236.185 504.515C236.516 510.897 237.252 517.298 239.085 523.421C240.782 529.09 243.393 534.438 246.116 539.692C248.914 545.093 251.879 550.478 255.92 555.025C259.961 559.571 265.206 563.265 271.173 564.444C278.654 565.922 286.332 563.344 293.229 560.093C307.533 553.349 320.364 543.503 330.579 531.431Z" fill="#00160A"/>
<path fill-rule="evenodd" clip-rule="evenodd" d="M382.33 457.476C395.32 444.696 408.31 431.915 421.301 419.135C422.028 418.419 423.105 417.655 423.965 418.204C425.112 418.936 424.195 420.697 423.227 421.654C409.246 435.482 395.264 449.309 381.282 463.137C380.275 462.626 379.982 461.248 380.337 460.175C380.692 459.103 381.524 458.268 382.33 457.476H382.33Z" fill="#00160A"/>
<path fill-rule="evenodd" clip-rule="evenodd" d="M282.883 383.972C282.091 384.109 281.299 384.246 280.507 384.383C278.97 382.076 277.397 379.682 276.914 376.953C276.432 374.223 277.335 371.046 279.758 369.699C282.5 368.176 283.326 364.428 282.453 361.416C281.579 358.403 279.416 355.962 277.296 353.65C275.144 351.301 271.692 348.808 269.137 350.71C267.471 351.951 264.978 351.249 263.487 349.804C261.995 348.358 261.207 346.361 260.243 344.522C258.419 341.042 255.758 337.903 252.279 336.078C248.799 334.254 244.444 333.892 240.942 335.673C237.467 337.439 235.276 340.953 232.314 343.487C229.353 346.021 224.462 347.367 221.794 344.526C221.115 343.804 220.66 342.732 221.045 341.819C221.431 340.906 222.929 340.592 223.406 341.46C224.624 343.673 227.99 343.641 230.095 342.245C232.2 340.85 233.517 338.567 235.244 336.724C238.621 333.12 243.755 331.243 248.661 331.819C253.567 332.396 258.126 335.411 260.576 339.701C261.757 341.768 262.485 344.119 264.026 345.933C265.567 347.747 268.368 348.858 270.346 347.532C272.579 346.035 275.492 347.896 277.452 349.736C280.105 352.227 282.689 354.919 284.183 358.237C285.677 361.555 285.913 365.638 283.961 368.708C282.336 371.265 279.227 373.335 279.496 376.352C279.748 379.165 282.985 381.15 282.883 383.972Z" fill="#00160A"/>
<path fill-rule="evenodd" clip-rule="evenodd" d="M317.174 257.294C321.93 259.521 326.161 263.082 328.606 267.729C331.051 272.377 331.548 278.148 329.356 282.92C324.822 292.792 310.404 296.634 308.814 307.38C308.409 310.117 308.96 312.963 308.283 315.646C307.816 317.5 306.792 319.155 305.973 320.883C304.216 324.589 303.386 328.731 303.58 332.829C301.747 333.821 299.592 331.708 299.358 329.638C299.124 327.567 299.953 325.511 299.908 323.427C299.825 319.511 296.796 316.394 294.211 313.45C290.335 309.034 286.967 303.835 286.337 297.994C286.135 296.111 286.22 294.191 285.797 292.346C285.342 290.362 284.322 288.562 283.42 286.737C280.99 281.813 279.345 276.13 280.841 270.846C282.338 265.563 287.916 261.192 293.211 262.646C294.715 263.059 296.187 263.903 297.73 263.673C300.44 263.269 301.533 260.036 303.421 258.052C306.807 254.494 312.727 255.212 317.174 257.294M294.146 308.637C297.149 312.588 300.151 316.538 303.154 320.489C306.598 316.862 305.174 310.996 306.221 306.105C307.647 299.443 313.606 294.921 318.769 290.476C323.932 286.031 329.059 279.949 327.899 273.236C326.967 267.841 322.26 264.008 317.746 260.91C315.201 259.163 312.264 257.407 309.229 257.968C306.16 258.536 304.058 261.257 301.847 263.459C299.636 265.661 296.302 267.575 293.535 266.131C289.641 264.101 284.683 267.565 283.585 271.817C282.486 276.07 284.066 280.518 285.8 284.553C287.535 288.588 289.491 292.77 289.162 297.149C288.841 301.41 291.56 305.235 294.146 308.637Z" fill="#00160A"/>
<path fill-rule="evenodd" clip-rule="evenodd" d="M54.6265 217.896C54.4316 217.367 55.3576 217.219 55.8541 217.484C55.8327 218.034 54.9883 218.311 54.6451 217.882L54.6265 217.896Z" fill="#00160A"/>
<path fill-rule="evenodd" clip-rule="evenodd" d="M414.781 434.247C415.8 434.389 416.342 435.644 416.111 436.647C415.879 437.649 415.124 438.435 414.4 439.167C408.548 445.082 402.696 450.997 396.843 456.912C396.411 457.349 395.904 457.818 395.289 457.799C394.464 457.772 393.923 456.817 394.024 455.997C394.125 455.177 394.664 454.487 395.187 453.848C400.568 447.264 406.408 441.054 412.65 435.279C413.25 434.724 413.972 434.134 414.781 434.247V434.247Z" fill="#00160A"/>
<path fill-rule="evenodd" clip-rule="evenodd" d="M242.706 348.701C245.93 348.993 248.409 352.023 248.963 355.213C249.516 358.402 248.522 361.664 247.173 364.607C246.43 366.229 245.576 367.799 244.618 369.305C243.93 370.388 243.053 371.526 241.787 371.736C239.673 372.087 238.188 369.76 237.373 367.778C236.225 364.99 235.171 362.162 234.215 359.302C233.745 357.897 233.294 356.419 233.534 354.958C233.901 352.724 235.799 351.053 237.788 349.972C239.298 349.152 240.994 348.546 242.706 348.701M239.677 365.126C239.924 365.512 240.187 365.908 240.575 366.152C240.893 366.353 241.283 366.437 241.655 366.385C242.614 366.252 243.23 365.329 243.72 364.494C245.002 362.308 246.317 360.015 246.462 357.485C246.606 354.955 245.169 352.141 242.689 351.62C239.788 351.009 237.085 353.916 236.839 356.871C236.593 359.825 238.076 362.631 239.677 365.126Z" fill="#FFB61D"/>
<path fill-rule="evenodd" clip-rule="evenodd" d="M242.567 354.696C243.363 354.953 244.049 355.534 244.434 356.277C244.776 356.937 244.879 357.719 244.72 358.447C244.351 360.126 242.453 361.298 240.787 360.875C239.121 360.453 238.01 358.518 238.486 356.867C238.961 355.215 240.931 354.167 242.567 354.696ZM242.198 358.181C242.805 357.862 242.262 356.698 241.628 356.958C241.136 357.023 240.81 357.642 241.035 358.084C241.26 358.527 241.951 358.629 242.294 358.27L242.198 358.181Z" fill="#FFB61D"/>
<path fill-rule="evenodd" clip-rule="evenodd" d="M413.216 386.478C411.418 384.537 409.803 382.427 408.397 380.186C407.947 379.469 408.879 378.537 409.717 378.648C410.555 378.76 411.172 379.463 411.706 380.118C413.569 382.403 415.431 384.687 417.294 386.971C417.08 387.787 416.051 388.155 415.236 387.939C414.421 387.723 413.789 387.096 413.216 386.478L413.216 386.478Z" fill="#00160A"/>
<path fill-rule="evenodd" clip-rule="evenodd" d="M474.583 492.322C474.603 492.589 474.505 492.849 474.403 493.096C473.38 495.586 471.858 497.87 469.953 499.772C466.922 502.799 462.814 505.041 461.191 509.005C460.806 509.944 459.372 510.08 458.627 509.391C457.882 508.703 457.779 507.522 458.109 506.563C458.44 505.603 459.122 504.813 459.789 504.048C461.961 501.557 464.134 499.066 466.306 496.575C467.971 494.666 469.709 492.701 472.016 491.654C472.965 491.223 474.502 491.283 474.583 492.322V492.322Z" fill="#00160A"/>
<path fill-rule="evenodd" clip-rule="evenodd" d="M415.43 376.104C417.575 378.624 419.719 381.144 421.864 383.664C422.224 384.087 422.605 384.568 422.58 385.123C422.542 385.986 421.482 386.501 420.642 386.3C419.802 386.099 419.167 385.428 418.603 384.773C416.786 382.666 415.158 380.395 413.746 377.997C413.196 377.062 412.982 375.427 414.058 375.287C414.61 375.216 415.07 375.681 415.43 376.104L415.43 376.104Z" fill="#00160A"/>
<path fill-rule="evenodd" clip-rule="evenodd" d="M390.732 390.149C390.406 389.691 390.069 389.094 390.345 388.604C390.8 387.795 392.035 388.423 392.651 389.117C394.83 391.575 396.684 394.319 398.152 397.257C396.754 397.965 395.268 396.525 394.36 395.249C393.151 393.549 391.941 391.849 390.732 390.149Z" fill="#00160A"/>
<path fill-rule="evenodd" clip-rule="evenodd" d="M392.664 397.384C393.537 398.292 394.419 399.783 393.511 400.655C392.586 401.541 391.107 400.541 390.291 399.555C388.315 397.169 386.596 394.57 385.175 391.818C386.087 391.035 387.438 391.946 388.271 392.812C389.735 394.336 391.2 395.86 392.664 397.384Z" fill="#00160A"/>
<path fill-rule="evenodd" clip-rule="evenodd" d="M395.041 388.451C394.647 387.871 394.276 387.073 394.704 386.517C395.315 385.722 396.557 386.452 397.241 387.185C399.225 389.311 401.209 391.438 403.193 393.565C403.105 394.334 402.204 394.793 401.438 394.68C400.673 394.566 400.035 394.05 399.462 393.531C397.794 392.021 396.307 390.312 395.041 388.451L395.041 388.451Z" fill="#00160A"/>
<path fill-rule="evenodd" clip-rule="evenodd" d="M407.55 383.735C408.785 385.312 410.021 386.888 411.257 388.465C411.747 389.09 412.264 389.892 411.944 390.619C411.636 391.32 410.663 391.504 409.959 391.203C409.255 390.902 408.762 390.265 408.303 389.652C407.014 387.931 405.736 386.2 404.47 384.461C404.191 384.077 403.898 383.646 403.941 383.173C404.011 382.385 405.02 381.975 405.774 382.216C406.528 382.457 407.062 383.112 407.55 383.735H407.55Z" fill="#00160A"/>
<path fill-rule="evenodd" clip-rule="evenodd" d="M406.619 391.005C406.875 391.284 407.149 391.61 407.121 391.987C407.084 392.491 406.494 392.803 405.994 392.729C405.495 392.654 405.082 392.312 404.706 391.975C402.24 389.757 400.162 387.11 398.593 384.188C398.901 383.385 400.115 383.93 400.698 384.564C402.671 386.711 404.645 388.858 406.619 391.005Z" fill="#00160A"/>
<path fill-rule="evenodd" clip-rule="evenodd" d="M430.567 376.789C430.759 377.01 430.962 377.263 430.95 377.556C430.933 377.999 430.407 378.276 429.97 378.201C429.534 378.126 429.181 377.815 428.856 377.514C426.534 375.369 424.314 373.115 422.204 370.761C422.95 369.759 424.525 370.563 425.431 371.423C427.227 373.129 428.941 374.92 430.567 376.789V376.789Z" fill="#00160A"/>
<path fill-rule="evenodd" clip-rule="evenodd" d="M423.211 378.932C421.913 377.154 420.614 375.376 419.316 373.598C419.078 373.272 418.827 372.875 418.955 372.492C419.207 371.739 420.351 372.074 420.966 372.577C422.919 374.17 424.576 376.123 425.829 378.31C426.073 378.734 426.307 379.236 426.134 379.694C425.915 380.276 425.117 380.447 424.545 380.204C423.972 379.96 423.578 379.435 423.211 378.932L423.211 378.932Z" fill="#00160A"/>
<path fill-rule="evenodd" clip-rule="evenodd" d="M433.572 372.398C432.289 371.019 431.007 369.64 429.724 368.26C429.267 367.769 429.82 366.897 430.487 366.826C431.154 366.754 431.765 367.175 432.294 367.589C433.266 368.349 434.205 369.153 435.105 369.999C435.603 370.466 436.108 370.977 436.295 371.634C436.483 372.291 436.225 373.125 435.58 373.347C434.837 373.604 434.107 372.974 433.572 372.398L433.572 372.398Z" fill="#00160A"/>
<path fill-rule="evenodd" clip-rule="evenodd" d="M431.083 375.128C429.308 373.308 427.607 371.414 425.987 369.454C425.706 369.113 425.408 368.693 425.528 368.267C425.664 367.786 426.294 367.597 426.767 367.758C427.24 367.919 427.587 368.318 427.909 368.699C429.393 370.455 430.876 372.211 432.36 373.966C432.761 374.441 433.156 375.188 432.701 375.611C432.241 376.038 431.52 375.577 431.083 375.128V375.128Z" fill="#00160A"/>
<path fill-rule="evenodd" clip-rule="evenodd" d="M515.527 487.663C517.531 487.045 522.603 485.669 524.607 485.051C525.505 484.774 526.84 484.738 527.008 485.663C527.147 486.423 526.272 486.941 525.539 487.188C523.515 487.867 518.353 489.098 516.234 489.354C515.48 489.445 514.384 489.164 514.537 488.42C514.625 487.991 515.109 487.792 515.527 487.663Z" fill="#00160A"/>
<path fill-rule="evenodd" clip-rule="evenodd" d="M291.653 403.872C294.825 403.918 298.576 404.656 299.841 407.565C301.029 410.298 299.161 413.583 296.54 415.001C293.919 416.419 290.797 416.454 287.817 416.451C247.162 416.398 206.508 415.417 165.898 413.508C163.367 413.389 163.127 409.737 163.706 407.27C164.051 405.798 164.438 404.247 165.5 403.17C167.028 401.621 169.451 401.516 171.627 401.509C200.822 401.415 230.069 401.323 259.14 404.009C263.745 404.434 268.354 404.93 272.978 404.885C279.214 404.824 285.418 403.781 291.653 403.872M296.206 411.252C296.887 409.922 295.884 408.231 294.521 407.621C293.157 407.01 291.59 407.169 290.103 407.315C271.045 409.19 251.858 407.026 232.741 405.909C218.845 405.097 204.924 404.838 191.008 404.58C185.206 404.472 179.405 404.364 173.604 404.256C171.753 404.222 169.726 404.246 168.304 405.432C166.882 406.617 166.834 409.41 168.599 409.969C168.918 410.07 169.257 410.087 169.591 410.104C210.435 412.09 251.333 412.981 292.225 412.776C293.723 412.768 295.522 412.585 296.206 411.252V411.252Z" fill="#00160A"/>
<path fill-rule="evenodd" clip-rule="evenodd" d="M265.699 436.733C269.324 444.669 277.134 450.544 285.764 451.827C289.825 452.431 292.597 456.124 294.909 459.516C297.313 463.041 299.075 469.016 295.103 470.573C310.521 487.576 325.94 504.579 341.359 521.581C343.15 523.557 344.89 526.854 342.813 528.526C342.042 529.147 340.985 529.244 339.995 529.278C327.292 529.703 315.305 523.757 304.312 517.378C288.481 508.192 273.36 497.781 259.131 486.268C248.735 477.858 233.8 475.452 221.288 480.172C214.798 482.621 206.661 477.628 205.903 470.733C205.146 463.837 212.005 457.197 218.872 458.179C208.548 442.859 190.082 433.391 171.616 433.949C149.328 434.623 126.951 432.284 105.284 427.017C103.381 426.555 101.338 425.977 100.144 424.425C97.7638 421.329 100.261 416.927 102.877 414.028C122.152 392.666 151.811 381.142 180.452 383.885C181.672 384.002 182.336 382.52 182.622 381.328C189.903 350.985 197.184 320.642 204.464 290.3C205.342 286.641 210.911 286.135 213.67 288.693C216.43 291.251 217.036 295.329 217.354 299.078C219.726 327.027 215.585 357.116 229.478 381.482C230.126 382.617 230.857 383.78 231.994 384.424C233.114 385.059 234.462 385.098 235.749 385.12C261.474 385.576 287.198 386.032 312.923 386.488C316.128 386.544 320.063 386.163 321.358 383.231C324.676 375.716 327.994 368.202 331.312 360.688C332.368 358.297 333.823 355.585 336.407 355.191C340.107 354.627 342.448 359.275 342.328 363.016C342.209 366.757 340.95 370.731 342.598 374.092C348.642 367.669 354.788 361.162 362.345 356.615C369.902 352.068 379.184 349.652 387.658 352.095C380.167 364.007 372.675 375.919 365.183 387.83C371.44 391.971 371.934 402.443 366.093 407.153C363.599 409.164 365.578 413.133 367.644 415.582C374.116 423.253 380.588 430.924 387.06 438.595C381.536 441.157 375.102 438.521 369.67 435.769C359.963 430.85 350.487 425.475 341.285 419.667C336.819 416.848 331.897 422.133 327.844 425.518C321.409 430.891 312.526 431.961 304.186 432.811C291.357 434.119 278.528 435.426 265.699 436.733ZM288.076 420.058C295.958 420.49 303.989 421.036 311.637 419.082C319.468 417.082 326.594 412.424 331.57 406.055C332.778 404.508 334.895 404.071 336.829 403.738C343.507 402.589 350.539 401.466 356.918 403.75C359.796 404.781 363.307 403.601 364.979 401.042C366.651 398.482 366.32 394.793 364.22 392.572C361.947 392.509 361.532 395.735 360.327 397.663C358.743 400.196 355.288 400.609 352.304 400.759C341.358 401.309 330.411 401.86 319.465 402.41C316.807 402.544 313.147 401.77 313.226 399.11C313.261 397.94 314.116 396.973 314.954 396.156C317.893 393.286 321.248 390.844 324.881 388.928C280.434 389.265 235.98 388.765 191.552 387.429C169.706 386.772 146.409 386.275 127.793 397.728C126.055 398.797 124.696 401.951 126.713 402.262C132.651 403.178 138.59 404.094 144.528 405.01C145.235 405.119 145.992 405.252 146.504 405.752C148.038 407.251 145.888 409.661 143.911 410.494C135.754 413.928 126.034 413.404 118.293 409.113C116.539 408.14 114.457 406.958 112.67 407.868C110.511 408.968 110.808 412.439 112.639 414.026C114.471 415.612 117.079 415.836 119.498 415.985C141.225 417.326 162.952 418.666 184.679 420.007C190.786 420.384 196.912 420.761 203.019 420.38C231.333 418.615 259.75 418.508 288.076 420.058ZM319.792 504.287C312.188 493.824 303.526 484.131 293.981 475.402C290.856 472.544 288.103 469.309 285.359 466.084C273.362 451.98 261.365 437.876 249.368 423.772C248.171 422.364 246.1 422.179 244.253 422.12C228.496 421.621 212.687 422.792 197.175 425.607C196.029 425.815 194.791 426.084 194.034 426.97C192.278 429.025 194.472 432.027 196.53 433.78C217.126 451.316 238.478 467.963 260.508 483.659C264.563 486.548 268.678 489.426 273.257 491.381C281.894 495.07 290.532 498.759 299.17 502.448C305.779 505.27 313.657 508.03 319.792 504.287M216.641 348.569C216.324 344.449 216.322 340.257 215.19 336.283C213.15 329.123 207.711 323.502 202.297 318.392C201.876 317.996 201.322 317.57 200.779 317.768C200.286 317.948 200.107 318.541 199.995 319.054C195.96 337.43 191.924 355.805 187.889 374.181C187.128 377.649 186.362 381.166 186.527 384.713C200.673 384.892 214.82 385.07 228.967 385.248C221.919 374.288 217.642 361.561 216.641 348.569ZM382.861 354.672C374.074 353.921 365.023 357.151 358.697 363.295C347.108 374.55 334.733 384.995 321.692 394.528C319.907 395.834 317.994 397.28 317.388 399.407C328.314 398.914 339.24 398.421 350.166 397.929C353.047 397.799 356.439 397.367 357.817 394.832C365.357 380.963 373.725 367.545 382.861 354.672ZM102.42 419.732C102.123 420.369 101.859 421.078 102.024 421.761C102.316 422.969 103.727 423.472 104.935 423.765C129.364 429.692 154.708 430.456 179.835 431.191C182.335 431.264 184.929 431.32 187.225 430.327C189.521 429.334 191.429 426.973 191.056 424.5C174.723 422.237 158.237 421.077 141.748 421.031C131.87 421.004 121.71 421.331 112.45 417.893C110.216 417.064 107.688 415.401 107.972 413.035C105.593 414.748 103.662 417.077 102.42 419.732ZM335.366 415.321C334.489 413.419 332.02 412.715 329.972 413.154C327.925 413.593 326.186 414.89 324.469 416.089C320.506 418.856 316.22 421.297 311.517 422.412C307.417 423.384 303.151 423.315 298.937 423.24C283.556 422.968 268.174 422.695 252.793 422.423C256.218 427.533 260.913 433.275 267.029 432.604C278.993 431.289 291.113 431.603 303.02 429.846C314.927 428.089 326.992 423.967 335.366 415.321ZM370.953 428.478C371.513 428.403 372.166 428.215 372.342 427.679C372.489 427.228 372.219 426.757 371.957 426.362C367.526 419.697 362.07 413.786 356.639 407.907C355.81 407.01 354.946 406.087 353.82 405.614C352.656 405.124 351.343 405.171 350.082 405.265C344.93 405.651 339.828 406.702 334.943 408.382C334.544 408.52 334.08 408.74 334.035 409.16C333.999 409.486 334.244 409.769 334.474 410.003C339.607 415.222 346.028 418.95 352.365 422.614C358.099 425.929 364.389 429.363 370.953 428.478ZM224.886 461.999C224.408 461.629 223.898 461.245 223.298 461.167C222.81 461.104 222.323 461.251 221.854 461.397C220.769 461.734 219.683 462.071 218.597 462.408C217.534 462.738 216.205 463.716 216.818 464.646C218.733 467.545 219.51 471.173 218.95 474.602C218.769 475.714 220.369 476.112 221.493 476.033C227.305 475.623 233.116 475.212 238.928 474.802C239.534 474.759 240.352 474.452 240.21 473.861C235.102 469.907 229.994 465.953 224.886 461.999ZM324.464 383.404C324.056 384.472 325.144 385.632 326.282 385.75C327.419 385.867 328.5 385.293 329.499 384.737C333.101 382.733 336.984 380.405 338.344 376.515C338.787 375.247 338.924 373.896 339.058 372.56C339.287 370.267 339.516 367.974 339.746 365.682C339.797 365.172 339.838 364.621 339.569 364.186C339.299 363.751 338.584 363.575 338.285 363.99C337.077 365.668 335.304 366.932 333.323 367.525C332.466 367.781 331.545 367.929 330.823 368.457C329.963 369.085 329.541 370.136 329.16 371.131C327.595 375.222 326.03 379.313 324.464 383.404ZM288.656 456.881C287.087 453.955 282.765 452.972 280.085 454.932C283.54 457.632 285.488 461.798 288.421 465.058C289.431 466.18 290.743 467.265 292.249 467.166C293.755 467.067 295 465.055 293.932 463.987C291.839 461.893 290.055 459.491 288.656 456.881ZM211.831 464.863C209.499 467.14 210.293 470.996 211.256 474.111C211.58 475.161 212.615 476.467 213.473 475.781C213.765 475.548 213.869 475.157 213.957 474.794C214.387 473.005 214.82 471.173 214.628 469.343C214.436 467.513 213.493 465.653 211.831 464.863Z" fill="#00160A"/>
<path fill-rule="evenodd" clip-rule="evenodd" d="M469.781 548.662C464.904 543.799 462.593 537 460.438 530.458C454.79 538.637 447.465 544.442 438.806 539.562C430.148 534.682 419.021 520.618 412.804 512.864C401.673 498.98 388.449 486.776 373.718 476.792C381.586 485.424 386.29 496.876 386.762 508.546C392.73 508.484 398.698 508.421 404.665 508.359C384.602 515.196 363.107 517.802 341.991 515.956C353.465 506.308 362.437 493.709 367.804 479.711C366.607 475.923 360.916 476.801 357.592 478.976C354.269 481.152 349.969 483.914 346.767 481.562C342.826 478.667 343.098 469.599 338.418 471.017C326.268 474.698 311.864 467.385 307.667 455.403C304.802 457.195 301.936 458.986 299.07 460.777C297.69 456.339 304.08 452.909 308.386 454.659C312.692 456.41 315.215 460.765 318.201 464.328C321.187 467.89 325.978 471.035 330.24 469.179C338.181 465.72 348.626 471.967 349.335 480.6C355.493 475.658 363.94 473.698 371.645 475.425C366.73 468.305 361.244 461.579 355.259 455.332C359.809 449.268 365.436 444.014 371.798 439.89C368.675 445.792 364.348 451.053 359.159 455.255C385.773 481.348 412.386 507.44 439 533.532C440.675 535.175 442.596 536.925 444.942 536.957C447.512 536.993 449.586 534.968 451.338 533.087C463.829 519.683 476.32 506.279 488.811 492.875C492.065 489.383 495.489 485.532 495.977 480.784C496.591 474.82 492.427 469.532 488.452 465.045C472.458 446.989 455.441 429.839 437.51 413.705C429.645 406.629 419.276 399.27 409.382 403.018C397.444 407.539 394.603 425.505 382.34 429.054C386.006 424.015 389.673 418.975 393.339 413.936C386.07 408.677 376.977 396.94 376.504 387.981C382.34 382.664 389.534 378.639 395.501 375.552C389.534 361.502 390.243 358.581 398.223 356.662C406.204 354.744 413.117 352.842 420.451 350.389C440.785 343.589 450.49 311.345 433.422 297.952C424.033 290.584 353.662 218.262 323.446 191.597C325.735 201.803 312.29 211.426 303.368 205.968C305.08 211.851 300.965 218.97 294.887 219.746C288.81 220.522 282.881 213.783 285.008 208.038C286.839 203.092 292.698 201.046 296.1 197.016C299.502 192.987 296.535 184.13 291.911 186.667C289.469 196.495 275.096 200.682 267.758 193.703C265.175 191.246 261.791 190.642 258.331 191.223C254.092 191.934 246.759 193.58 243.623 196.619C238.711 201.381 237.602 208.337 231.754 211.569C230.822 212.085 229.844 212.527 228.812 212.878C221.304 215.437 210.792 208.007 214.69 201.099C193.327 220.796 178.662 247.631 173.621 276.248C184.771 279.427 186.888 294.07 186.856 305.665C174.278 308.856 186.111 332.867 175.232 339.942C162.83 348.007 166.278 366.763 171.189 380.717C158.618 353.663 157.106 321.663 167.069 293.544C166.084 311.383 165.099 329.223 164.115 347.062C172.55 345.828 175.957 335.548 176.654 327.052C177.352 318.556 177.882 308.559 185.026 303.906C182.359 297.109 181.265 289.7 181.853 282.421C178.748 281.419 175.644 280.417 172.539 279.415C170.674 292.55 156.085 299.011 144.055 304.603C131.068 310.641 118.849 318.33 107.787 327.427C95.9214 337.185 84.6221 350.599 85.9362 365.905C87.1997 380.622 99.8815 391.875 113.195 398.272C98.9381 398.241 86.7013 385.557 84.4031 371.487C82.1048 357.416 88.2357 342.941 97.821 332.387C107.406 321.832 120.116 314.658 133.005 308.563C149.883 300.581 170.356 290.228 170.986 271.569C171.511 256.014 188.571 240.769 180.399 227.524C168.919 208.919 162.515 187.216 162.058 165.359C161.832 154.577 163.8 142.371 172.639 136.191C177.04 133.114 182.515 132.04 187.849 131.427C207.632 129.156 228.012 132.326 246.171 140.499C256.888 145.322 268.591 152.008 279.619 147.946C305.332 138.475 332.684 133.469 360.085 133.22C363.738 133.187 366.769 130.505 369.313 127.883C379.32 117.565 387.672 105.626 398.563 96.2451C409.454 86.8643 423.942 80.1109 438.02 83.0141C452.758 86.0534 463.76 99.1777 468.574 113.435C473.389 127.692 473.116 143.094 472.791 158.139C472.209 185.081 506.002 199.753 514.723 225.252C519.866 240.285 536.831 247.252 552.088 251.687C567.345 256.123 584.436 261.037 592.3 274.843C599.624 287.703 596.002 304.549 587.356 316.56C578.709 328.57 565.907 336.8 553.418 344.74C533.197 357.594 538.874 390.472 522.599 408.058C514.395 416.924 517.196 431.07 521.454 442.374C525.712 453.678 530.947 466.251 526.121 477.325C523.487 459.583 518.859 442.138 512.353 425.422C503.282 432.018 507.875 446.208 513.283 456.034C520.099 468.416 526.914 480.798 533.729 493.18C536.564 498.329 539.494 504.004 538.474 509.793C537.308 516.412 531.41 520.992 525.946 524.907C513.473 533.846 500.999 542.784 488.525 551.723C482.927 555.735 474.659 553.525 469.781 548.662ZM496.403 434.539C495.309 433.309 493.307 433.909 491.812 434.6C490.313 435.292 488.815 435.984 487.317 436.676C486.988 436.827 486.626 436.982 486.277 436.888C485.62 436.709 485.509 435.735 485.922 435.193C486.335 434.651 487.035 434.434 487.683 434.223C489.063 433.775 490.41 433.225 491.71 432.578C492.453 432.208 493.25 431.72 493.452 430.915C493.654 430.11 492.73 429.132 492.047 429.603C490.036 430.989 487.774 432.009 485.403 432.598C484.692 432.775 483.584 432.552 483.751 431.839C483.815 431.566 484.07 431.387 484.307 431.237C486.422 429.907 488.73 428.885 491.136 428.213C492.002 427.971 491.787 426.513 490.961 426.156C490.136 425.798 489.192 426.16 488.367 426.519C486.373 427.389 484.379 428.258 482.385 429.128C481.956 429.315 481.477 429.559 481.362 430.012C481.259 430.418 481.495 430.825 481.72 431.178C483.17 433.447 484.619 435.717 486.069 437.987C486.29 438.332 486.541 438.702 486.931 438.829C487.354 438.967 487.808 438.776 488.212 438.587C490.972 437.299 493.703 435.949 496.403 434.539ZM360.15 187.66C355.456 187.74 351.931 182.403 352.804 177.79C353.678 173.177 357.825 169.726 362.316 168.358C368.419 166.5 375.706 167.587 380.57 163.46C382.756 161.606 384.09 158.942 386.08 156.88C390.417 152.386 397.963 151.435 403.28 154.713C404.474 151.58 400.942 148.551 397.636 147.993C394.33 147.435 390.765 148.101 387.72 146.699C382.37 144.236 376.07 147.4 371.789 151.444C367.507 155.488 363.997 160.583 358.719 163.198C353.442 165.813 345.458 164.354 344.007 158.646C343.554 156.868 343.499 154.511 341.764 153.911C339.028 152.965 337.605 149.771 337.767 146.881C337.93 143.991 339.315 141.33 340.671 138.773C335.31 138.503 329.926 138.669 324.592 139.27C323.312 139.414 321.685 139.954 321.688 141.242C321.694 143.903 319.223 145.812 317.003 147.28C312.304 150.386 307.605 153.492 302.906 156.598C303.053 159.7 307.627 160.442 310.306 158.871C312.986 157.3 314.873 154.491 317.761 153.349C319.304 152.74 320.998 152.665 322.655 152.597C325.486 152.482 328.317 152.367 331.148 152.252C334.776 152.104 339.67 153.025 339.862 156.651C340.019 159.624 336.718 161.362 334.604 163.459C329.793 168.233 329.811 177.474 323.497 179.938C321.253 180.814 320.65 183.921 321.634 186.12C322.618 188.318 324.671 189.812 326.613 191.237C360.506 216.106 419.551 280.222 420.843 280.393C422.135 280.564 423.65 279.637 423.578 278.336C423.391 274.972 423.21 271.546 424.033 268.279C424.856 265.011 426.853 261.866 429.933 260.5C432.772 259.24 436.903 258.956 437.517 255.911C438.892 249.102 445.71 243.836 452.646 244.225C456.054 244.417 459.814 245.717 462.65 243.818C460.363 241.648 456.983 241.201 454.147 239.823C451.311 238.446 448.817 234.959 450.511 232.3C453.014 228.374 449.369 223.24 450.118 218.645C450.436 216.694 451.537 214.968 452.702 213.372C456.65 207.961 461.637 203.31 467.31 199.749C468.629 198.921 468.96 197.178 469.167 195.635C469.669 191.908 470.17 188.182 470.672 184.455C471.022 181.856 471.259 178.872 469.475 176.949C463.669 170.691 454.003 170.486 445.471 170.764C436.939 171.043 427.298 170.933 421.387 164.773C419.552 162.862 416.202 163.512 414.212 165.261C412.223 167.011 411.123 169.53 409.642 171.727C405.015 178.591 396.057 182.228 387.955 180.534C383.615 179.626 379.24 177.339 374.979 178.564C369.3 180.196 366.059 187.559 360.15 187.66ZM523.213 356.586C523.473 357.533 523.855 358.614 524.784 358.933C525.529 359.189 526.333 358.84 527.042 358.498C529.399 357.363 531.756 356.227 534.113 355.092C535.323 354.51 536.682 353.736 536.898 352.411C541.262 325.532 539.997 297.752 533.21 271.38C531.605 265.143 529.691 258.973 527.14 253.06C523.881 245.507 519.611 238.437 515.228 231.476C508.918 221.456 502.344 211.603 495.513 201.931C494.246 203.907 493.869 206.302 493.224 208.559C492.58 210.817 491.499 213.157 489.425 214.258C487.351 215.358 484.166 214.424 483.798 212.105C483.003 207.092 477.624 203.302 472.636 204.24C471.563 204.442 471.209 205.776 471.075 206.859C469.861 216.706 468.647 226.553 467.433 236.399C467.344 237.115 467.308 237.967 467.871 238.418C468.339 238.793 469.008 238.709 469.608 238.7C473.003 238.649 475.964 242.195 475.308 245.527C474.652 248.858 470.568 251.017 467.446 249.683C466.099 249.107 465.043 250.934 464.705 252.36C462.666 260.968 460.627 269.575 458.588 278.183C457.987 280.722 460.179 283.118 462.537 284.234C464.896 285.349 467.59 285.753 469.754 287.211C475.175 290.861 474.942 299.163 479.325 304.011C482.895 307.959 489.503 308.678 493.838 305.589C497.718 302.824 499.404 297.777 499.406 293.013C499.407 289.765 501.425 286.603 504.369 285.232C507.314 283.862 511.033 284.355 513.519 286.446C515.94 288.482 517.037 291.646 518.029 294.65C518.466 295.975 518.904 297.421 518.435 298.735C517.667 300.883 515.026 301.52 512.867 302.257C508.902 303.612 505.427 306.356 503.189 309.899C502.096 311.628 501.356 314.052 502.708 315.587C506.012 319.336 509.316 323.085 512.621 326.834C514.349 328.795 516.128 330.849 516.822 333.368C518.952 341.108 521.082 348.847 523.213 356.586ZM186.622 233.338C191.8 223.674 197.029 213.933 204.063 205.523C210.224 198.158 217.644 191.965 225.053 185.858C234.815 177.811 244.636 169.837 254.516 161.936C258.628 158.647 262.804 155.337 267.599 153.159C253.225 146.826 238.76 140.46 223.5 136.74C208.24 133.019 191.986 132.049 176.928 136.52C175.478 136.951 174.02 137.441 172.768 138.29C170.654 139.725 169.318 142.049 168.316 144.4C164.378 153.639 164.599 164.107 165.88 174.068C168.569 194.98 175.685 215.313 186.622 233.338ZM511.156 520.149C511.021 521.553 509.507 522.872 508.235 522.263C507.635 521.975 507.269 521.363 506.938 520.785C501.868 511.935 496.799 503.084 491.729 494.233C488.458 495.463 486.886 499.407 487.253 502.883C487.621 506.359 489.474 509.476 491.283 512.467C494.05 517.041 496.817 521.615 499.585 526.189C498.13 527.687 495.787 525.695 494.71 523.907C490.87 517.532 487.03 511.157 483.189 504.782C475.855 512.326 468.521 519.869 461.187 527.413C465.963 534.879 470.74 542.345 475.516 549.81C476.642 551.57 479.052 552.132 481.093 551.689C483.134 551.247 484.899 550.009 486.601 548.798C499.401 539.694 512.201 530.591 525.001 521.487C525.974 520.795 527.016 520.005 527.302 518.845C527.601 517.633 526.98 516.403 526.379 515.309C497.423 462.634 466.52 411.031 433.754 360.639C432.789 359.155 431.57 357.517 429.804 357.4C428.627 357.322 427.536 357.962 426.532 358.581C413.536 366.578 400.541 374.575 387.545 382.572C385.139 384.053 382.733 385.533 380.327 387.014C379.701 387.399 379.026 387.845 378.816 388.55C378.568 389.383 379.061 390.239 379.535 390.967C384.268 398.24 389.266 405.341 394.513 412.251C400.715 405.577 408.094 398.388 417.202 398.614C425.065 398.809 431.553 404.529 437.281 409.92C440.631 413.074 443.982 416.228 447.332 419.382C442.037 409.461 435.776 400.057 428.667 391.344C428.36 389.877 430.943 390.278 431.939 391.398C441.86 402.558 447.321 417.224 457.768 427.892C468.444 438.794 479.12 449.696 489.796 460.598C494.33 465.229 499.142 470.461 499.5 476.932C499.827 482.842 496.323 488.218 492.8 492.975C499.01 500.305 504.69 508.085 509.782 516.232C510.529 517.428 511.292 518.745 511.156 520.149ZM398.092 139.989C402.588 140.88 407.089 141.772 411.5 143.018C422.86 146.225 433.422 151.715 443.892 157.167C453.03 161.925 462.218 166.715 470.42 172.95C471.311 150.661 470.428 128.53 463.011 107.493C460.873 101.426 455.708 94.8846 450.683 90.8686C444.783 86.1532 436.593 85.3233 429.117 86.3929C416.057 88.2613 404.161 95.2559 394.363 104.092C384.566 112.928 376.622 123.589 368.746 134.173C378.528 136.112 388.31 138.05 398.092 139.989ZM529.293 248.174C541.913 280.369 546.034 315.851 541.129 350.081C557.143 340.904 571.457 328.769 583.131 314.472C588.949 307.348 594.34 298.963 593.961 289.773C593.649 282.221 589.353 275.249 583.68 270.254C578.007 265.258 571.04 261.992 564.038 259.145C552.775 254.566 541.144 250.893 529.293 248.174ZM504.546 303.22C507.511 301.045 510.684 299.152 514.008 297.578C513.999 295.457 513.977 293.267 513.125 291.324C512.274 289.382 510.364 287.738 508.249 287.884C506.025 288.037 504.347 290.068 503.641 292.182C502.935 294.297 502.923 296.577 502.434 298.752C501.084 304.768 495.753 309.678 489.647 310.531C483.541 311.384 477.068 308.122 474.121 302.707C471.746 298.343 471.389 292.696 467.605 289.477C465.509 287.693 462.719 287.008 460.039 286.378C459.417 286.232 458.755 286.087 458.151 286.294C457.179 286.626 456.722 287.712 456.38 288.681C454.086 295.167 451.792 301.654 449.497 308.14C448.649 310.54 447.951 313.607 449.847 315.304C467.36 330.977 474.488 355.905 492.299 371.239C492.827 371.693 493.476 372.167 494.154 372.007C502.65 369.99 510.887 366.884 518.598 362.788C519.212 362.462 519.852 362.101 520.205 361.502C520.562 360.895 520.56 360.147 520.523 359.443C520.269 354.596 518.829 349.816 516.361 345.636C515.195 343.66 513.764 341.708 513.541 339.423C513.351 337.473 514.076 335.472 513.612 333.568C513.234 332.013 512.12 330.759 511.044 329.574C508.002 326.227 504.961 322.879 501.92 319.532C500.416 317.876 498.853 316.11 498.392 313.921C497.494 309.657 501.032 305.799 504.546 303.22ZM313.936 204.672C317.524 202.514 319.698 198.209 319.306 194.041C318.733 187.958 313.495 183.525 308.659 179.791C300.736 173.673 282.618 158.808 274.652 155.612C266.686 152.417 231.442 183.855 219.195 195.909C218.576 196.518 217.931 197.182 217.759 198.032C217.586 198.883 213.844 208.036 221.379 210.261C228.914 212.485 229.722 210.771 232.801 208.036C235.879 205.301 237.671 201.421 239.117 197.565C240.353 194.272 244.088 192.696 247.534 191.994C250.98 191.292 254.694 191.031 257.545 188.971C260.513 186.825 264.659 186.95 268.043 188.353C271.426 189.755 274.221 192.25 276.944 194.7C279.219 196.747 282.897 194.458 284.3 191.738C285.702 189.018 286.291 185.662 288.744 183.833C292.251 181.217 297.633 183.558 299.793 187.364C302.864 192.775 300.693 200.503 295.252 203.523C292.1 205.273 287.486 206.446 287.36 210.049C287.298 211.841 288.549 213.417 289.942 214.545C292.443 216.567 296.514 217.527 298.645 215.118C301.68 211.684 298.29 204.428 302.495 202.604C306.208 200.994 310.468 206.759 313.936 204.672ZM409.81 166.261C411.067 164.31 412.328 162.172 414.426 161.178C417.107 159.907 420.327 160.916 422.87 162.445C425.414 163.973 427.685 166.018 430.475 167.029C433.314 168.057 436.425 167.918 439.442 167.766C444.458 167.513 449.475 167.26 454.491 167.007C424.168 149.437 390.059 137.115 355.015 136.769C352.061 136.74 349.039 136.807 346.267 137.829C343.496 138.851 340.978 141.002 340.268 143.869C339.185 148.236 343.158 152.904 347.654 153.043C345.306 154.762 345.668 158.756 347.905 160.618C350.143 162.48 353.492 162.465 356.178 161.344C358.864 160.223 361.041 158.179 363.154 156.176C367.086 152.45 371.019 148.724 374.951 144.997C377.423 142.655 381.271 142.556 384.612 143.217C387.952 143.878 391.222 145.157 394.626 145.074C401.773 144.901 408.105 152.239 406.885 159.284C403.677 156.258 399.011 154.856 394.667 155.612C390.322 156.369 386.404 159.265 384.407 163.197C382.788 166.384 379.174 168.068 375.659 168.724C372.145 169.38 368.514 169.243 365.013 169.966C361.512 170.689 357.943 172.532 356.511 175.808C355.079 179.083 356.95 183.755 360.51 184.085C364.656 184.47 367.076 179.601 370.564 177.326C373.883 175.161 378.216 175.445 382.088 176.286C385.961 177.128 389.833 178.455 393.781 178.114C400.642 177.52 406.078 172.049 409.81 166.261ZM520.857 365.92C512.911 368.983 504.965 372.047 497.02 375.11C495.914 375.537 494.569 376.626 495.234 377.606C502.812 388.792 508.646 401.157 512.46 414.119C512.831 415.381 514.746 414.437 515.494 413.355C522.443 403.308 527.984 392.288 531.903 380.718C532.613 378.624 533.274 376.362 532.665 374.236C531.709 370.896 528.119 369.212 525.473 366.96C524.743 366.338 524.003 365.618 523.054 365.48C522.306 365.371 521.562 365.648 520.857 365.92ZM429.196 266.567C425.546 270.443 428.612 277.008 426.737 281.99C426.321 283.095 425.65 284.26 426.033 285.376C426.224 285.932 426.652 286.369 427.067 286.785C428.365 288.085 429.663 289.386 430.961 290.686C431.979 291.707 433.632 292.765 434.694 291.788C439.059 287.774 444.346 284.769 450.029 283.073C451.666 282.585 453.436 282.143 454.579 280.874C455.586 279.754 455.911 278.197 456.198 276.718C457.802 268.44 459.396 260.16 460.978 251.877C461.102 251.231 461.221 250.538 460.958 249.935C460.678 249.296 460.032 248.904 459.402 248.604C453.01 245.559 444.413 248.679 441.462 255.115C440.46 257.3 439.998 259.829 438.316 261.545C435.864 264.047 431.597 264.017 429.196 266.567ZM301.739 160.678C300.504 159.556 299.225 158.148 299.347 156.484C299.477 154.71 301.12 153.486 302.609 152.513C307.884 149.063 313.158 145.613 318.433 142.163C318.305 141.138 316.869 141.03 315.853 141.215C302.194 143.698 288.813 147.702 276.035 153.128C290.285 161.912 303.956 171.636 316.93 182.216C318.504 178.642 322.557 176.883 324.955 173.801C327.986 169.907 328.213 164.126 331.94 160.893C333.769 159.307 336.486 158.207 336.852 155.814C333.652 155.836 330.452 155.858 327.253 155.881C323.361 155.908 319.217 156.009 315.983 158.175C313.16 160.065 310.991 163.503 307.595 163.6C305.358 163.664 303.396 162.182 301.739 160.678ZM461.258 373.54C463.741 377.993 466.225 382.445 468.709 386.898C464.159 372.423 458.734 358.223 452.472 344.402C452.25 343.911 451.995 343.386 451.519 343.134C450.931 342.823 450.215 343.029 449.585 343.239C431.945 349.137 414.304 355.035 396.664 360.933C396.128 361.113 395.547 361.327 395.259 361.813C394.913 362.397 395.12 363.14 395.352 363.778C396.385 366.631 397.738 369.367 399.377 371.921C410.44 365.483 421.504 359.046 432.567 352.609C434.27 351.618 436.063 350.6 438.032 350.525C439.661 350.464 441.245 351.061 442.7 351.796C451.343 356.155 456.542 365.086 461.258 373.54ZM381.165 494.001C378.941 489.251 375.126 485.363 370.745 482.48C365.366 492.473 359.192 502.039 352.303 511.058C351.776 511.748 351.582 513.16 352.448 513.099C360.848 512.508 369.249 511.918 377.65 511.327C379.336 511.208 381.363 510.854 381.982 509.281C383.904 504.402 383.389 498.75 381.165 494.001ZM507.999 423.934C508.679 422.892 509.371 421.822 509.647 420.608C510.012 419.003 509.609 417.333 509.176 415.745C505.844 403.535 500.602 391.881 494.06 381.047C493.298 379.785 492.478 378.493 491.238 377.698C489.998 376.902 488.215 376.756 487.133 377.756C485.688 379.092 486.236 381.451 486.895 383.306C492.11 398.001 497.326 412.695 502.542 427.39C502.853 428.265 503.561 429.342 504.427 429.006C504.764 428.876 504.983 428.555 505.181 428.252C506.12 426.813 507.06 425.373 507.999 423.934ZM455.652 237.038C457.161 238.311 459.165 238.794 461.09 239.237C462.633 239.593 463.546 237.58 463.813 236.019C465.598 225.593 466.744 215.069 467.889 204.553C467.013 204.181 466.084 204.897 465.401 205.559C462.948 207.94 460.494 210.32 458.04 212.701C456.332 214.358 454.546 216.148 454.004 218.466C452.973 222.877 456.733 227.904 454.356 231.76C453.32 233.441 454.142 235.765 455.652 237.038ZM450.307 320.444C449.719 319.781 449.082 319.098 448.239 318.825C447.396 318.552 446.296 318.861 446.003 319.698C443.391 327.171 440.778 334.644 438.166 342.117C437.918 342.827 438.085 344.023 438.806 343.811C443.212 342.51 447.277 340.209 451.702 338.973C456.126 337.738 461.3 337.753 464.836 340.687C460.713 333.459 455.835 326.663 450.307 320.444ZM488.047 211.165C489.372 207.57 490.697 203.975 492.023 200.38C492.279 199.683 491.771 198.958 491.293 198.389C486.562 192.753 481.791 187.079 476.063 182.46C475.819 182.263 475.542 182.058 475.229 182.074C474.634 182.106 474.396 182.847 474.312 183.437C473.599 188.449 472.886 193.462 472.172 198.474C471.965 199.935 473.311 201.205 474.721 201.637C476.132 202.069 477.651 201.948 479.101 202.218C481.776 202.716 484.145 204.631 485.193 207.142C485.857 208.735 486.349 210.854 488.047 211.165ZM445.748 307.991C448.253 301.585 450.551 295.097 452.636 288.541C452.776 288.1 452.916 287.621 452.767 287.182C452.37 286.011 450.636 286.314 449.531 286.868C445.187 289.044 441.01 291.553 437.048 294.365C436.555 294.714 436.018 295.154 436 295.757C435.986 296.214 436.279 296.615 436.56 296.975C439.503 300.745 442.568 304.419 445.748 307.991ZM482.496 413.59C482.026 413.078 481.256 412.999 480.561 413.01C478.99 413.036 477.425 413.356 475.971 413.949C475.255 414.241 474.544 414.603 473.772 414.643C473 414.682 472.134 414.28 471.944 413.531C473.984 412.072 476.458 411.229 478.965 411.137C480.08 411.096 480.112 409.204 479.133 408.668C478.155 408.132 476.949 408.525 475.907 408.925C474.186 409.586 472.465 410.247 470.744 410.908C470.243 411.101 469.727 410.495 469.8 409.963C469.872 409.432 470.304 409.028 470.73 408.702C472.278 407.519 474.126 406.732 476.052 406.435C476.969 406.293 477.117 404.869 476.447 404.227C475.776 403.585 474.745 403.543 473.817 403.591C471.121 403.733 468.448 404.317 465.939 405.314C468.078 409.153 470.263 412.967 472.493 416.755C473.07 417.735 473.696 418.76 474.696 419.303C476.492 417.035 479.223 415.531 482.1 415.227C482.791 415.154 482.966 414.102 482.496 413.59ZM519.349 482.854C517.7 483.275 516.066 483.755 514.451 484.293C514.009 484.44 513.499 484.671 513.424 485.131C513.379 485.404 513.511 485.673 513.639 485.918C514.587 487.741 515.536 489.563 516.484 491.386C516.869 492.125 517.643 492.993 518.361 492.57C520.727 491.18 523.369 490.262 526.087 489.886C526.835 489.783 527.324 488.981 527.341 488.226C527.358 487.471 527.024 486.758 526.698 486.077C526.138 484.91 525.523 483.681 524.422 483.001C522.941 482.086 521.035 482.424 519.349 482.854ZM525.712 502.883C525.067 503.001 524.322 503.196 524.069 503.801C523.863 504.294 524.081 504.852 524.296 505.341C525.119 507.208 525.942 509.074 526.765 510.941C527.022 511.524 527.361 512.178 527.983 512.317C528.426 512.415 528.874 512.214 529.283 512.018C530.551 511.411 531.819 510.804 533.087 510.196C533.801 509.855 534.557 509.474 534.948 508.787C535.339 508.099 535.132 507.022 534.369 506.813C533.962 506.701 533.532 506.86 533.152 507.045C532.017 507.597 530.993 508.399 529.781 508.751C528.569 509.103 527.026 508.833 526.451 507.71C529.437 506.649 532.292 505.218 534.93 503.461C534.693 501.812 532.383 501.666 530.745 501.965C529.067 502.271 527.39 502.577 525.712 502.883ZM501.312 460.028C501.797 459.5 502.502 459.241 503.178 459.001C505.038 458.34 506.898 457.679 508.759 457.017C509.726 456.673 509.488 455.066 508.576 454.596C507.664 454.126 506.562 454.419 505.581 454.721C503.453 455.377 501.326 456.032 499.198 456.687C498.92 456.773 498.629 456.867 498.434 457.083C497.989 457.576 498.288 458.352 498.604 458.936C499.447 460.494 500.29 462.051 501.134 463.609C501.232 463.791 501.342 463.984 501.53 464.072C501.756 464.178 502.021 464.097 502.257 464.015C504.846 463.12 507.435 462.226 510.025 461.331C510.642 461.117 511.384 460.726 511.332 460.075C511.261 459.186 509.958 459.179 509.108 459.449C506.445 460.294 503.782 461.139 501.119 461.984C500.649 461.442 500.826 460.556 501.312 460.028ZM534.412 358.426C532.119 359.721 529.827 361.017 527.534 362.312C527.258 362.468 526.969 362.637 526.818 362.916C526.418 363.652 527.208 364.451 527.904 364.917C529.33 365.873 530.756 366.828 532.182 367.784C532.463 367.972 532.765 368.167 533.103 368.17C533.871 368.177 534.267 367.274 534.464 366.531C535.096 364.149 535.729 361.766 536.361 359.383C536.441 359.084 536.518 358.756 536.39 358.474C536.08 357.794 535.062 358.058 534.412 358.426ZM504.228 465.365C503.674 465.508 503.043 465.715 502.836 466.248C502.682 466.644 502.822 467.092 503.002 467.477C503.466 468.469 504.201 469.332 505.106 469.949C507.511 469.031 509.917 468.113 512.322 467.195C513.355 466.8 514.579 466.136 514.535 465.03C514.504 464.239 513.757 463.626 512.98 463.473C512.203 463.32 511.405 463.519 510.638 463.716C508.501 464.266 506.365 464.815 504.228 465.365ZM469.377 378.838C470.218 380.481 472.3 380.957 474.122 381.252C477.028 381.723 479.933 382.194 482.839 382.664C482.889 381.015 481.188 379.919 479.677 379.257C476.907 378.043 474.016 377.106 471.061 376.464C470.742 376.395 470.41 376.329 470.093 376.406C469.146 376.634 468.934 377.971 469.377 378.838ZM458.606 377.595C458.833 377.508 459.064 377.421 459.26 377.277C460.127 376.64 459.863 375.142 458.979 374.53C458.094 373.917 456.896 374 455.87 374.322C454.843 374.645 453.886 375.179 452.836 375.416C451.418 375.737 449.563 375.722 449.02 377.07C448.556 378.221 449.62 379.525 450.832 379.792C452.044 380.059 453.287 379.612 454.448 379.171C455.834 378.646 457.22 378.12 458.606 377.595ZM464.184 387.981C465.355 387.217 464.813 385.205 463.568 384.569C462.323 383.933 460.827 384.23 459.464 384.542C458.026 384.871 456.491 385.256 455.512 386.358C454.533 387.461 454.534 389.527 455.87 390.151C457.686 390.999 459.388 388.604 461.37 388.308C462.317 388.166 463.382 388.504 464.184 387.981ZM505.286 452.433C505.679 452.302 506.095 452.153 506.347 451.826C506.629 451.46 506.639 450.94 506.48 450.507C506.106 449.495 504.94 448.956 503.861 448.975C502.782 448.995 501.765 449.454 500.785 449.904C499.536 450.477 498.288 451.05 497.039 451.623C496.353 451.938 495.577 452.366 495.463 453.113C495.348 453.872 496.045 454.562 496.796 454.722C497.547 454.883 498.321 454.658 499.054 454.432C501.139 453.789 503.217 453.123 505.286 452.433ZM510.912 478.87C513.601 477.739 516.29 476.609 518.979 475.478C519.233 475.371 519.496 475.258 519.681 475.054C520.227 474.449 519.729 473.395 518.968 473.104C518.206 472.813 517.357 473.038 516.574 473.265C514.757 473.791 512.94 474.317 511.123 474.844C510.118 475.135 508.993 475.526 508.569 476.483C507.991 477.791 509.593 479.424 510.912 478.87ZM529.063 494.545C530.137 494.13 529.745 492.32 528.679 491.887C527.613 491.453 526.415 491.899 525.335 492.297C523.218 493.076 521.035 493.68 518.818 494.098C518.045 495.139 518.987 496.733 520.234 497.086C521.481 497.44 522.796 496.966 524.005 496.499C525.691 495.848 527.377 495.197 529.063 494.545ZM471.82 374.045C473.987 374.613 476.153 375.181 478.32 375.748C479.145 375.964 480.416 375.844 480.356 374.993C476.614 372.406 472.309 370.639 467.828 369.851C467.591 369.809 467.34 369.771 467.114 369.854C466.337 370.136 466.633 371.34 467.218 371.924C468.429 373.132 470.166 373.611 471.82 374.045ZM480.007 365.675C480.773 367.517 481.539 369.36 482.305 371.202C482.767 372.312 483.285 373.491 484.303 374.129C485.321 374.768 486.978 374.498 487.312 373.343C487.566 372.463 486.971 371.584 486.406 370.863C484.249 368.113 482.027 365.412 479.743 362.765C479.237 363.641 479.618 364.741 480.007 365.675ZM476.296 369.137C476.702 369.277 477.197 369.403 477.526 369.126C477.911 368.801 477.772 368.172 477.51 367.742C476.561 366.179 474.639 365.56 472.88 365.06C470.515 364.388 468.15 363.716 465.784 363.044C465.049 362.836 464.496 363.908 464.84 364.59C465.184 365.273 465.975 365.579 466.698 365.828C469.897 366.931 473.096 368.034 476.296 369.137ZM507.922 470.722C507.258 470.924 506.535 471.168 506.171 471.76C505.524 472.812 506.47 474.186 507.581 474.726C510.089 472.685 513.285 471.505 516.518 471.427C517.619 471.4 517.715 469.556 516.782 468.972C515.848 468.389 514.639 468.69 513.585 469.009C511.698 469.58 509.81 470.151 507.922 470.722ZM497.416 441.925C495.891 442.328 494.366 442.732 492.841 443.135C491.442 443.505 489.689 444.42 490.025 445.827C490.31 447.025 491.984 447.297 493.107 446.792C494.231 446.288 495.087 445.31 496.205 444.794C498.033 443.951 500.606 444.258 501.631 442.526C500.758 441.286 498.882 441.538 497.416 441.925ZM440.258 361.276C439.965 361.403 439.663 361.547 439.47 361.801C438.972 362.457 439.515 363.476 440.287 363.763C441.058 364.051 441.915 363.844 442.715 363.653C445.406 363.008 448.144 362.562 450.901 362.319C451.169 360.807 449.192 359.96 447.658 359.899C445.13 359.798 442.581 360.273 440.258 361.276ZM484.856 419.907C485.647 419.069 485.199 417.204 484.069 417.424C481.073 418.009 478.184 419.143 475.589 420.751C474.982 421.986 476.66 423.267 478.02 423.053C479.379 422.838 480.47 421.842 481.744 421.32C482.809 420.884 484.066 420.744 484.856 419.907ZM486.498 392.829C486.143 392.38 485.575 392.168 485.036 391.975C482.417 391.038 479.798 390.102 477.179 389.165C476.462 388.909 475.659 388.654 474.962 388.96C474.265 389.265 473.987 390.421 474.669 390.758C478.025 392.417 481.592 393.647 485.256 394.41C485.637 394.489 486.064 394.556 486.392 394.347C486.875 394.04 486.853 393.278 486.498 392.829ZM474.167 362.016C474.54 362.237 475.031 361.818 475.041 361.384C475.051 360.95 474.759 360.573 474.465 360.253C471.652 357.183 467.523 355.75 463.574 354.429C462.572 354.095 461.107 353.981 460.815 354.996C465.38 357.108 469.839 359.452 474.167 362.016ZM532.418 498.192C532.182 497.37 531.313 496.857 530.462 496.772C529.61 496.686 528.765 496.939 527.946 497.189C526.518 497.626 525.089 498.063 523.66 498.5C522.673 498.801 521.473 499.395 521.556 500.424C521.623 501.261 522.599 501.762 523.435 501.682C524.271 501.602 525.008 501.129 525.766 500.767C527.418 499.975 529.305 499.679 531.12 499.926C531.969 500.042 532.654 499.015 532.418 498.192ZM442.809 367.536C442.797 368.31 443.402 369.047 444.163 369.187C444.654 369.277 445.157 369.142 445.638 369.008C448.419 368.233 451.201 367.458 453.982 366.682C454.026 365.901 453.35 365.225 452.601 364.999C451.852 364.772 451.047 364.888 450.273 365.006C448.253 365.313 446.233 365.621 444.213 365.928C443.448 366.044 442.821 366.763 442.809 367.536ZM488.748 423.167C488.858 422.44 488.144 421.799 487.415 421.707C486.686 421.616 485.97 421.913 485.296 422.205C483.149 423.132 481.003 424.058 478.857 424.985C478.218 425.795 479.004 427.081 480.01 427.308C481.017 427.536 482.037 427.076 482.966 426.628C484.432 425.921 485.899 425.214 487.365 424.507C487.968 424.217 488.647 423.828 488.748 423.167ZM458.052 348.848C458.3 349.289 458.791 349.523 459.253 349.73C463.077 351.443 466.901 353.157 470.726 354.87C471.405 355.174 472.395 355.381 472.73 354.716C473.089 354.004 472.202 353.322 471.468 353.01C467.353 351.262 463.239 349.514 459.125 347.767C458.918 347.679 458.697 347.589 458.476 347.626C457.977 347.709 457.805 348.407 458.052 348.848ZM477.858 398.185C477.73 398.131 477.592 398.076 477.455 398.103C477.313 398.13 477.195 398.254 477.174 398.398C477.509 400.687 480.077 401.815 482.277 402.529C485.153 403.462 488.028 404.396 490.904 405.329C491.595 404.564 490.467 403.506 489.517 403.105C485.631 401.465 481.744 399.825 477.858 398.185ZM456.595 371.362C456.916 370.758 456.433 370.002 455.824 369.689C454.761 369.142 453.478 369.448 452.325 369.764C451.012 370.124 449.699 370.485 448.386 370.845C447.44 371.105 446.299 371.596 446.264 372.576C446.237 373.31 446.93 373.91 447.652 374.045C448.374 374.179 449.11 373.967 449.814 373.757C451.687 373.198 453.56 372.639 455.433 372.079C455.881 371.946 456.375 371.776 456.595 371.362ZM521.7 477.853C520.919 477.401 519.937 477.665 519.077 477.94C516.344 478.813 513.611 479.687 510.878 480.561C510.273 481.529 511.373 482.817 512.512 482.885C513.651 482.953 514.684 482.288 515.69 481.749C517.52 480.768 519.537 480.138 521.599 479.901C522.496 479.798 522.481 478.305 521.7 477.853ZM469.499 394.875C468.624 394.64 467.697 394.803 466.805 394.968C465.702 395.171 464.599 395.375 463.497 395.578C462.246 395.809 460.66 396.456 460.793 397.721C460.871 398.467 461.608 399.006 462.35 399.114C463.093 399.222 463.839 399.001 464.557 398.783C466.758 398.113 468.959 397.442 471.16 396.772C471.181 395.866 470.375 395.109 469.499 394.875ZM461.993 380.048C461.38 379.423 460.372 379.379 459.532 379.621C458.691 379.864 457.938 380.342 457.117 380.643C456.149 380.999 455.102 381.104 454.137 381.469C453.172 381.833 452.24 382.562 452.073 383.58C452.435 384.427 453.652 384.332 454.541 384.093C456.898 383.458 459.255 382.823 461.613 382.189C462.457 381.961 462.605 380.673 461.993 380.048ZM458.712 391.582C457.73 391.867 457.899 393.49 458.795 393.984C459.691 394.477 460.797 394.205 461.779 393.921C463.839 393.326 465.9 392.731 467.96 392.135C468.111 391.106 467.17 390.174 466.154 389.95C465.138 389.726 464.087 390.019 463.088 390.31C461.629 390.734 460.171 391.158 458.712 391.582ZM470.404 246.607C471.714 245.664 471.513 243.716 471.551 242.102C469.844 241.893 467.973 241.72 466.533 242.662C465.093 243.603 464.707 246.145 466.249 246.909C466.778 247.172 467.396 247.164 467.987 247.152C468.826 247.134 469.723 247.097 470.404 246.607ZM473.706 383.86C472.881 383.775 471.678 384.14 471.914 384.935C472.026 385.317 472.446 385.505 472.82 385.64C476.411 386.939 480.161 387.798 483.959 388.194C484.429 388.085 484.567 387.42 484.321 387.005C484.075 386.589 483.601 386.375 483.153 386.195C480.134 384.981 476.944 384.193 473.706 383.86ZM456.993 343.996C460.099 345.592 463.265 347.072 466.482 348.432C467.107 348.697 467.816 348.958 468.443 348.7C469.071 348.443 469.311 347.391 468.689 347.119C465.032 345.519 461.375 343.919 457.718 342.318C457.137 342.064 456.309 341.882 455.995 342.433C455.651 343.037 456.375 343.678 456.993 343.996ZM487.737 397.533C487.207 397.052 486.496 396.837 485.81 396.636C482.925 395.788 480.04 394.94 477.155 394.093C476.755 393.975 476.311 393.861 475.938 394.045C475.564 394.228 475.429 394.857 475.803 395.04C479.75 396.975 483.918 398.461 488.199 399.461C488.553 398.841 488.266 398.013 487.737 397.533ZM490 442.061C492.057 441.333 494.115 440.606 496.172 439.878C497.078 439.558 498.049 439.187 498.568 438.379C498.435 437.655 497.651 437.198 496.915 437.184C496.178 437.17 495.481 437.488 494.814 437.8C493.011 438.642 491.207 439.485 489.404 440.327C488.753 440.632 488.003 441.079 487.991 441.798C488.33 442.458 489.301 442.308 490 442.061ZM473.652 400.912C474.132 400.377 473.7 399.448 473.032 399.182C472.364 398.915 471.611 399.099 470.916 399.285C468.555 399.916 466.194 400.548 463.832 401.18C463.404 401.677 463.789 402.515 464.391 402.775C464.993 403.034 465.684 402.896 466.325 402.754C468.455 402.281 470.586 401.808 472.716 401.335C473.056 401.26 473.419 401.171 473.652 400.912ZM502.506 445.167C502.019 445.06 501.521 445.252 501.06 445.441C498.543 446.469 496.025 447.498 493.508 448.527C492.779 448.825 493.073 450.062 493.813 450.333C494.553 450.603 495.362 450.253 496.071 449.91C498.234 448.863 500.397 447.816 502.56 446.769C502.806 446.65 503.068 446.515 503.189 446.27C503.41 445.823 502.992 445.274 502.506 445.167ZM484.023 405.189C483.054 404.831 481.656 404.643 481.269 405.601C484.681 407.358 488.299 408.712 492.026 409.627C492.788 409.168 491.837 408.082 491.003 407.773C488.676 406.912 486.35 406.051 484.023 405.189ZM437.091 358.044C436.439 358.784 437.081 360.187 438.067 360.179C440.32 358.707 442.952 357.821 445.636 357.628C444.785 356.563 443.311 356.16 441.953 356.266C440.594 356.372 439.313 356.914 438.059 357.448C437.708 357.598 437.343 357.757 437.091 358.044ZM492.223 413.327C492.961 413.505 494.122 413.298 493.939 412.561C490.857 411.17 487.609 410.147 484.286 409.521C483.92 410.016 484.14 410.764 484.599 411.175C485.058 411.586 485.683 411.745 486.281 411.889C488.262 412.368 490.242 412.848 492.223 413.327ZM489.892 417.187C491.618 417.721 493.404 418.058 495.206 418.188C495.567 417.711 495.361 416.982 494.919 416.578C494.478 416.174 493.873 416.014 493.293 415.866C491.455 415.399 489.617 414.931 487.779 414.464C487.112 415.612 488.623 416.795 489.892 417.187ZM529.187 515.168C528.775 516.179 529.311 517.593 530.393 517.733C531.74 516.44 532.897 514.948 533.815 513.322C533.293 512.757 532.371 512.894 531.65 513.159C530.626 513.536 529.599 514.157 529.187 515.168ZM500.406 431.233C499.529 430.416 498.446 429.822 497.286 429.522C497.1 431.166 498.043 432.879 499.532 433.6C499.889 433.773 500.312 433.891 500.677 433.736C501.598 433.344 501.139 431.916 500.406 431.233ZM496.093 420.904C495.49 420.468 494.71 420.385 493.97 420.316C493.058 420.231 492.146 420.146 491.233 420.061C490.792 421.125 492.043 422.161 493.183 422.328C494.323 422.494 495.571 422.267 496.567 422.846C497.018 422.255 496.696 421.339 496.093 420.904ZM503.161 440.95C503.519 441.255 503.959 441.527 504.427 441.476C504.591 439.237 503.079 437.155 501.197 435.932C500.975 437.79 501.738 439.736 503.161 440.95ZM497.319 425.862C496.262 425.279 495.02 425.041 493.823 425.19C494.257 426.356 495.29 427.281 496.497 427.583C497.144 427.745 497.95 427.673 498.302 427.108C498.654 426.542 497.959 425.606 497.414 425.989M438.172 353.343C437.171 353.52 436.231 354.029 435.536 354.77C436.78 355.12 438.198 354.766 439.132 353.873C438.901 353.564 438.544 353.352 438.162 353.299" fill="#00160A"/>
<path fill-rule="evenodd" clip-rule="evenodd" d="M416.693 452.916C426.906 443.106 441.241 444.489 451.267 455.254C459.986 464.619 457.914 476.991 448.012 487.367C444.277 491.243 436.778 493.813 431.351 493.184C426.757 492.727 419.604 489.342 415.355 486.221C413.388 484.775 411.589 481.797 409.893 477.272L409.643 476.595C406.629 468.239 408.664 459.406 415.492 453.863L415.812 453.608L415.884 453.509C415.943 453.436 416.012 453.366 416.089 453.301L416.213 453.206L416.352 453.117L416.643 452.97L416.693 452.916ZM434.447 486.613L431.358 489.916L431.699 489.945C434.865 490.175 437.963 489.679 440.78 488.482L440.937 488.413L440.718 488.4C438.772 488.261 436.715 487.667 434.578 486.674L434.447 486.613ZM425.435 480.408L425.146 480.143L424.841 480.439C423.644 481.606 422.427 482.802 421.182 484.034L419.772 485.434C420.171 485.724 420.587 486.008 421.019 486.285C422.972 487.559 425.082 488.524 427.265 489.151L427.734 489.28L429.992 486.902L431.681 485.114L431.571 485.048C429.447 483.744 427.36 482.143 425.435 480.408ZM440.169 480.49L436.487 484.43L436.673 484.511C439.538 485.712 442.085 485.939 444.277 485.054L444.508 484.955L444.286 484.705C443.179 483.466 441.988 482.237 440.684 480.982L440.169 480.49ZM417.986 472.177L417.333 472.819C416.392 473.735 415.442 474.645 414.484 475.548L412.977 476.957L413.104 477.259C414.124 479.61 415.546 481.657 417.397 483.447L417.464 483.51L417.674 483.297C419.015 481.936 420.4 480.558 421.843 479.146L422.965 478.053L422.66 477.746C420.982 476.038 419.545 474.366 418.337 472.677L417.986 472.177ZM446.183 474.055L442.165 478.355L442.205 478.393C443.747 479.864 445.156 481.307 446.464 482.765L446.861 483.213L446.873 483.199C448.245 481.336 448.009 478.301 446.361 474.463L446.183 474.055ZM432.124 473.473L431.826 473.753C430.452 475.042 429.059 476.365 427.639 477.731L427.238 478.116L427.612 478.446C429.576 480.162 431.459 481.605 433.339 482.767L433.695 482.981L436.217 480.304L437.953 478.455L437.379 477.946C436.338 477.026 435.213 476.063 433.798 474.874L432.124 473.473ZM453.591 466.131L448.031 472.078L448.212 472.427C448.518 473.03 448.818 473.642 449.113 474.264L449.551 475.205L449.959 476.11C450.374 476.987 450.66 477.859 450.813 478.719L450.836 478.865L451.002 478.566C453.252 474.442 454.174 470.197 453.61 466.254L453.591 466.131ZM441.362 466.066L441.077 465.688L440.063 466.539L437.238 468.875L436.733 469.299C436.213 469.738 435.746 470.14 435.316 470.521L434.815 470.971L434.298 471.449L435.463 472.421C436.763 473.511 437.894 474.48 438.952 475.414L439.958 476.311L443.189 472.85L444.726 471.196L444.714 471.174C443.748 469.47 442.6 467.729 441.362 466.066ZM424.153 466.415L423.911 466.177L423.834 466.259C422.89 467.248 421.937 468.23 420.975 469.204L420.016 470.168L420.216 470.474C421.384 472.224 422.829 473.933 424.515 475.59L424.941 476.003L425.018 476.076L425.15 475.95C426.124 475.02 427.122 474.074 428.155 473.105L429.818 471.547L429.589 471.355C427.717 469.761 425.909 468.118 424.153 466.415ZM413.878 460.106L413.786 460.259C411.499 464.104 410.793 468.884 411.855 473.437L411.951 473.827L411.999 474.012L412.478 473.565C413.481 472.621 414.476 471.667 415.463 470.706L416.468 469.718L416.372 469.543C414.727 466.481 413.866 463.371 413.878 460.177L413.878 460.106ZM432.045 457.227L430.853 458.597C429.499 460.138 428.126 461.662 426.735 463.17L425.915 464.051L426.119 464.249C427.74 465.817 429.419 467.343 431.173 468.843L431.988 469.533L432.767 468.816C433.267 468.362 433.802 467.895 434.408 467.38L435.401 466.548L437.735 464.625C438.157 464.277 438.533 463.963 438.883 463.668L439.225 463.377L439.059 463.184C438.259 462.254 437.504 461.456 436.878 460.87L436.694 460.701C435.422 459.553 434.031 458.503 432.482 457.504L432.045 457.227ZM448.899 457.06L448.774 457.279C447.485 459.464 445.709 461.51 443.293 463.738L443.091 463.922L443.164 464.022C444.219 465.504 445.22 467.056 446.168 468.675L446.512 469.271L449.215 466.352L452.634 462.641L452.555 462.446C451.768 460.578 450.6 458.824 449.048 457.211L448.899 457.06ZM416.906 458.722L416.893 458.847C416.615 461.794 417.193 464.692 418.545 467.543L418.579 467.613L418.939 467.253C419.737 466.445 420.529 465.632 421.316 464.812L421.917 464.182L421.673 463.934C420.288 462.507 418.928 461.033 417.586 459.504L416.906 458.722ZM418.25 455.463L418.044 455.563L418.097 455.626C419.926 457.808 421.79 459.875 423.718 461.858L423.916 462.059L424.721 461.196C426.133 459.665 427.526 458.117 428.9 456.552L429.568 455.783L429.497 455.744C429.157 455.559 428.809 455.374 428.451 455.189L427.909 454.911C424.725 453.348 422.374 453.522 418.57 455.31L418.25 455.463ZM438.158 449.888L436.985 451.343C436.194 452.316 435.395 453.284 434.588 454.245L434.023 454.914L434.167 455.005C436.3 456.381 438.116 457.874 439.61 459.528L439.949 459.913C440.28 460.297 440.606 460.686 440.928 461.081L441.297 461.542L441.348 461.495C443.727 459.278 445.407 457.257 446.56 455.087L446.593 455.021L446.289 454.78C443.204 452.356 440.945 450.915 438.554 450.029L438.158 449.888ZM433.442 449.054C430.42 449.033 427.669 449.573 425.13 450.682L424.985 450.746L425.237 450.78C425.794 450.861 426.34 451.002 426.876 451.205L427.144 451.312C428.583 451.945 429.906 452.58 431.146 453.239L431.561 453.463L432.374 452.504C433.202 451.519 434.022 450.527 434.834 449.529L435.125 449.167L434.771 449.127C434.477 449.097 434.182 449.076 433.886 449.065L433.442 449.054Z" fill="#FFB61D"/>
<path fill-rule="evenodd" clip-rule="evenodd" d="M484.799 242.193C485.755 239.607 489.194 238.539 491.731 239.616C494.269 240.694 495.843 243.389 496.241 246.117C496.639 248.845 496.035 251.617 495.259 254.262C494.551 256.675 493.696 259.044 492.701 261.352C492.609 261.567 492.485 261.807 492.257 261.858C492.014 261.913 491.79 261.724 491.616 261.547C487.304 257.178 484.705 251.163 484.479 245.029C484.443 244.072 484.468 243.091 484.799 242.193ZM492.253 242.824C491.545 242.217 490.632 241.82 489.701 241.848C487.526 241.914 486.009 244.286 486.057 246.461C486.106 248.636 487.264 250.61 488.389 252.472C489.194 253.806 489.999 255.14 490.804 256.473C491.079 256.928 491.619 257.446 492.046 257.131C492.219 257.004 492.285 256.782 492.342 256.576C492.671 255.364 493.001 254.152 493.33 252.941C493.802 251.209 494.277 249.448 494.247 247.653C494.218 245.858 493.616 243.992 492.253 242.824L492.253 242.824Z" fill="#FFB61D"/>
<path fill-rule="evenodd" clip-rule="evenodd" d="M490.831 249.786C490.301 249.935 489.723 249.907 489.21 249.707C488.215 249.319 487.528 248.253 487.586 247.187C487.643 246.121 488.441 245.135 489.472 244.857C491.034 244.436 492.793 245.875 492.689 247.489C492.622 248.537 491.841 249.501 490.831 249.786Z" fill="#FFB61D"/>
</svg>
